<svg width="265" height="265" viewBox="0 0 265 265" fill="none" xmlns="http://www.w3.org/2000/svg">
<g clip-path="url(#clip0_822_2112)">
<path fill-rule="evenodd" clip-rule="evenodd" d="M33.125 0H231.875C250.17 0 265 14.8306 265 33.125V231.875C265 250.17 250.17 265 231.875 265H33.125C14.8306 265 0 250.17 0 231.875V33.125C0 14.8306 14.8306 0 33.125 0ZM33.125 33.125V231.875H231.875V33.125H33.125ZM82.8125 115.938C73.6654 115.938 66.25 108.522 66.25 99.375C66.25 90.2279 73.6654 82.8125 82.8125 82.8125H182.188C191.335 82.8125 198.75 90.2279 198.75 99.375C198.75 108.522 191.335 115.938 182.188 115.938H82.8125ZM82.8125 182.188C73.6654 182.188 66.25 174.772 66.25 165.625C66.25 156.478 73.6654 149.062 82.8125 149.062H182.188C191.335 149.062 198.75 156.478 198.75 165.625C198.75 174.772 191.335 182.188 182.188 182.188H82.8125Z" fill="black"/>
</g>
<defs>
<clipPath id="clip0_822_2112">
<rect width="265" height="265" fill="white"/>
</clipPath>
</defs>
</svg>
