<svg width="265" height="265" viewBox="0 0 265 265" fill="none" xmlns="http://www.w3.org/2000/svg">
<g clip-path="url(#clip0_822_2114)">
<path fill-rule="evenodd" clip-rule="evenodd" d="M88.0233 227.706C84.2112 222.946 84.9793 215.997 89.739 212.184C94.4988 208.373 101.448 209.141 105.26 213.9C119.851 232.118 141.839 242.917 165.625 242.917C208.312 242.917 242.917 208.312 242.917 165.625C242.917 141.839 232.118 119.851 213.9 105.26C209.141 101.448 208.373 94.4988 212.184 89.739C215.997 84.9793 222.946 84.2112 227.706 88.0233C251.102 106.761 265 135.063 265 165.625C265 220.509 220.509 265 165.625 265C135.063 265 106.761 251.102 88.0233 227.706ZM99.375 198.75C44.4917 198.75 0 154.259 0 99.375C0 44.4917 44.4917 0 99.375 0C154.259 0 198.75 44.4917 198.75 99.375C198.75 154.259 154.259 198.75 99.375 198.75ZM99.375 176.667C142.062 176.667 176.667 142.062 176.667 99.375C176.667 56.688 142.062 22.0833 99.375 22.0833C56.688 22.0833 22.0833 56.688 22.0833 99.375C22.0833 142.062 56.688 176.667 99.375 176.667ZM89.4577 152.405C88.423 158.415 82.7124 162.447 76.7026 161.413C70.6929 160.378 66.6599 154.667 67.6946 148.658C74.8046 107.361 107.361 74.8046 148.658 67.6946C154.667 66.6599 160.378 70.6929 161.413 76.7026C162.447 82.7124 158.415 88.423 152.405 89.4577C120.322 94.9814 94.9814 120.322 89.4577 152.405Z" fill="black"/>
</g>
<defs>
<clipPath id="clip0_822_2114">
<rect width="265" height="265" fill="white"/>
</clipPath>
</defs>
</svg>
